<svg width="314" height="277" viewBox="0 0 314 277" fill="none" xmlns="http://www.w3.org/2000/svg">
<path d="M221.323 46.8695C254.681 58.5397 257.854 98.5706 229.602 120.816C205.386 139.884 201.889 164.303 173.365 172.639C144.842 180.975 113.636 166.423 85.1633 143.506C48.3554 113.88 62.3036 55.9743 117.351 77.0403C151.207 89.9966 183.246 33.5485 221.323 46.8695Z" fill="url(#paint0_linear)"/>
<path d="M164.2 122C162.152 119.951 162.152 116.631 164.2 114.582C166.248 112.534 169.569 112.534 171.617 114.582L215.049 158.014L213.289 159.775C210.164 162.899 205.099 162.899 201.975 159.775L164.2 122Z" fill="white"/>
<path fill-rule="evenodd" clip-rule="evenodd" d="M191.559 123.824L179.774 135.61L177.319 133.154L189.104 121.369L191.559 123.824Z" fill="url(#paint1_linear)"/>
<path fill-rule="evenodd" clip-rule="evenodd" d="M211.56 147.754L178.169 114.363C175.999 112.193 172.482 112.193 170.312 114.363C168.143 116.532 168.143 120.05 170.312 122.219L203.703 155.611C205.873 157.78 209.39 157.78 211.56 155.611C213.73 153.441 213.73 149.923 211.56 147.754ZM167.366 111.416C163.569 115.213 163.569 121.369 167.366 125.166L200.757 158.557C204.554 162.354 210.71 162.354 214.506 158.557C218.303 154.76 218.303 148.604 214.506 144.808L181.115 111.416C177.318 107.62 171.163 107.62 167.366 111.416Z" fill="url(#paint2_linear)"/>
<circle cx="143.13" cy="87.1803" r="47.9167" fill="white"/>
<path fill-rule="evenodd" clip-rule="evenodd" d="M143.13 41.3473C117.817 41.3473 97.2967 61.8676 97.2967 87.1807C97.2967 112.494 117.817 133.014 143.13 133.014C159.114 133.014 173.189 124.833 181.394 112.421C182.028 111.461 183.321 111.197 184.281 111.832C185.24 112.466 185.504 113.759 184.87 114.718C175.926 128.248 160.572 137.181 143.13 137.181C115.516 137.181 93.13 114.795 93.13 87.1807C93.13 59.5664 115.516 37.1807 143.13 37.1807C170.744 37.1807 193.13 59.5664 193.13 87.1807C193.13 93.5663 191.932 99.677 189.746 105.297C189.329 106.369 188.122 106.9 187.05 106.483C185.977 106.066 185.446 104.859 185.863 103.787C187.864 98.6406 188.963 93.0414 188.963 87.1807C188.963 61.8676 168.443 41.3473 143.13 41.3473Z" fill="url(#paint3_linear)"/>
<path fill-rule="evenodd" clip-rule="evenodd" d="M143.13 121.209C161.923 121.209 177.158 105.974 177.158 87.1808C177.158 68.3878 161.923 53.153 143.13 53.153C124.337 53.153 109.102 68.3878 109.102 87.1808C109.102 105.974 124.337 121.209 143.13 121.209ZM143.13 125.375C164.224 125.375 181.324 108.275 181.324 87.1808C181.324 66.0866 164.224 48.9863 143.13 48.9863C122.036 48.9863 104.936 66.0866 104.936 87.1808C104.936 108.275 122.036 125.375 143.13 125.375Z" fill="url(#paint4_linear)"/>
<path d="M168.336 79.8448C169.567 79.372 170.181 77.991 169.708 76.7601C167.652 71.4095 164.073 66.8357 159.357 63.5319C154.53 60.1489 148.858 58.3613 142.956 58.3613C141.638 58.3613 140.569 59.43 140.569 60.7485C140.569 62.067 141.638 63.1356 142.956 63.1356C152.767 63.1356 161.727 69.2984 165.251 78.4722C165.617 79.4214 166.521 80.0042 167.481 80.0042C167.765 80.0042 168.054 79.9529 168.336 79.8448Z" fill="#763BF1"/>
<path d="M169.215 84.6191C167.898 84.6191 166.828 85.6887 166.828 87.0063C166.828 88.3239 167.898 89.3934 169.215 89.3934C170.533 89.3934 171.602 88.3239 171.602 87.0063C171.602 85.6887 170.533 84.6191 169.215 84.6191Z" fill="#763BF1"/>
<path d="M110.491 165.653C109.068 165.653 107.644 165.111 106.561 164.028C104.394 161.86 104.394 158.334 106.561 156.167C108.728 154 112.255 154 114.422 156.167C116.589 158.335 116.589 161.861 114.422 164.028C113.338 165.111 111.915 165.653 110.491 165.653ZM110.491 158.373C110.05 158.373 109.608 158.541 109.271 158.878C108.599 159.55 108.599 160.645 109.271 161.317C109.944 161.99 111.038 161.99 111.711 161.317C112.383 160.645 112.383 159.55 111.711 158.878C111.375 158.542 110.933 158.373 110.491 158.373Z" fill="#0066FF"/>
<path d="M125.769 165.653C124.346 165.653 122.922 165.111 121.839 164.028C119.672 161.86 119.672 158.334 121.839 156.167C124.005 154 127.533 154 129.699 156.167C131.867 158.335 131.867 161.861 129.699 164.028C128.616 165.111 127.192 165.653 125.769 165.653ZM125.769 158.373C125.328 158.373 124.886 158.541 124.549 158.878C123.877 159.55 123.877 160.645 124.549 161.317C125.222 161.99 126.316 161.99 126.989 161.317C127.661 160.645 127.661 159.55 126.989 158.878C126.653 158.542 126.211 158.373 125.769 158.373Z" fill="#0066FF"/>
<path d="M141.047 165.653C139.624 165.653 138.2 165.111 137.117 164.028C134.949 161.86 134.949 158.334 137.117 156.167C139.283 154 142.811 154 144.977 156.167C147.145 158.335 147.145 161.861 144.977 164.028C143.894 165.111 142.47 165.653 141.047 165.653ZM141.047 158.373C140.605 158.373 140.163 158.541 139.827 158.878C139.154 159.55 139.154 160.645 139.827 161.317C140.5 161.99 141.594 161.99 142.267 161.317C142.939 160.645 142.939 159.55 142.267 158.878C141.93 158.542 141.488 158.373 141.047 158.373Z" fill="#0066FF"/>
<path d="M91.3051 237H88.6261L82.6221 227.88V237H79.9431V223.586H82.6221L88.6261 232.782V223.586H91.3051V237ZM98.5932 226.341C99.6192 226.341 100.538 226.556 101.348 226.987C102.172 227.418 102.818 228.045 103.286 228.868C103.755 229.679 103.989 230.635 103.989 231.737C103.989 232.839 103.755 233.795 103.286 234.606C102.818 235.417 102.172 236.044 101.348 236.487C100.538 236.918 99.6192 237.133 98.5932 237.133C97.5672 237.133 96.6425 236.918 95.8192 236.487C95.0085 236.044 94.3689 235.417 93.9002 234.606C93.4315 233.795 93.1972 232.839 93.1972 231.737C93.1972 230.635 93.4315 229.679 93.9002 228.868C94.3689 228.045 95.0085 227.418 95.8192 226.987C96.6425 226.556 97.5672 226.341 98.5932 226.341ZM98.5932 228.659C97.8459 228.659 97.2125 228.925 96.6932 229.457C96.1739 229.976 95.9142 230.736 95.9142 231.737C95.9142 232.738 96.1739 233.504 96.6932 234.036C97.2125 234.555 97.8459 234.815 98.5932 234.815C99.3405 234.815 99.9739 234.555 100.493 234.036C101.013 233.504 101.272 232.738 101.272 231.737C101.272 230.736 101.013 229.976 100.493 229.457C99.9739 228.925 99.3405 228.659 98.5932 228.659ZM112.699 228.488C113.092 227.817 113.611 227.291 114.257 226.911C114.903 226.518 115.625 226.322 116.423 226.322V229.191H115.644C113.681 229.191 112.699 230.103 112.699 231.927V237H110.02V226.474H112.699V228.488ZM127.805 231.338C127.805 231.604 127.773 231.908 127.71 232.25H119.996C120.034 233.187 120.287 233.878 120.756 234.321C121.225 234.764 121.807 234.986 122.504 234.986C123.125 234.986 123.638 234.834 124.043 234.53C124.461 234.226 124.727 233.814 124.841 233.295H127.672C127.533 234.03 127.235 234.688 126.779 235.271C126.323 235.854 125.734 236.31 125.012 236.639C124.303 236.968 123.511 237.133 122.637 237.133C121.611 237.133 120.699 236.918 119.901 236.487C119.103 236.044 118.482 235.417 118.039 234.606C117.596 233.795 117.374 232.839 117.374 231.737C117.374 230.635 117.596 229.679 118.039 228.868C118.482 228.045 119.103 227.418 119.901 226.987C120.699 226.556 121.611 226.341 122.637 226.341C123.676 226.341 124.581 226.556 125.354 226.987C126.139 227.418 126.741 228.013 127.159 228.773C127.59 229.52 127.805 230.375 127.805 231.338ZM125.107 231.072C125.145 230.211 124.917 229.558 124.423 229.115C123.942 228.672 123.346 228.45 122.637 228.45C121.915 228.45 121.307 228.672 120.813 229.115C120.319 229.558 120.047 230.211 119.996 231.072H125.107ZM133.336 226.341C134.615 226.341 135.641 226.664 136.414 227.31C137.186 227.956 137.668 228.817 137.858 229.894H135.35C135.248 229.387 135.02 228.982 134.666 228.678C134.311 228.374 133.849 228.222 133.279 228.222C132.823 228.222 132.468 228.33 132.215 228.545C131.961 228.76 131.835 229.052 131.835 229.419C131.835 229.71 131.936 229.945 132.139 230.122C132.341 230.299 132.595 230.439 132.899 230.54C133.203 230.641 133.64 230.762 134.21 230.901C135.008 231.078 135.654 231.268 136.148 231.471C136.654 231.661 137.085 231.971 137.44 232.402C137.807 232.82 137.991 233.39 137.991 234.112C137.991 235.011 137.636 235.74 136.927 236.297C136.23 236.854 135.286 237.133 134.096 237.133C132.728 237.133 131.632 236.829 130.809 236.221C129.985 235.6 129.485 234.72 129.308 233.58H131.873C131.936 234.099 132.164 234.511 132.557 234.815C132.949 235.106 133.462 235.252 134.096 235.252C134.552 235.252 134.9 235.144 135.141 234.929C135.381 234.701 135.502 234.41 135.502 234.055C135.502 233.751 135.394 233.504 135.179 233.314C134.976 233.124 134.716 232.978 134.4 232.877C134.096 232.776 133.659 232.655 133.089 232.516C132.303 232.339 131.664 232.161 131.17 231.984C130.688 231.794 130.27 231.496 129.916 231.091C129.574 230.686 129.403 230.128 129.403 229.419C129.403 228.507 129.751 227.766 130.448 227.196C131.144 226.626 132.107 226.341 133.336 226.341ZM150.056 226.474V237H147.377V234.872C147.098 235.581 146.636 236.139 145.99 236.544C145.357 236.937 144.622 237.133 143.786 237.133C142.57 237.133 141.601 236.734 140.879 235.936C140.157 235.138 139.796 234.023 139.796 232.592V226.474H142.456V232.288C142.456 233.124 142.671 233.776 143.102 234.245C143.533 234.701 144.115 234.929 144.85 234.929C145.623 234.929 146.237 234.682 146.693 234.188C147.149 233.694 147.377 232.985 147.377 232.06V226.474H150.056ZM155.171 222.94V237H152.492V222.94H155.171ZM163.218 234.701V237H161.812C160.634 237 159.729 236.715 159.095 236.145C158.475 235.575 158.164 234.625 158.164 233.295V228.735H156.701V226.474H158.164V223.871H160.843V226.474H163.199V228.735H160.843V233.333C160.843 233.84 160.945 234.194 161.147 234.397C161.35 234.6 161.692 234.701 162.173 234.701H163.218ZM168.775 226.341C170.055 226.341 171.081 226.664 171.853 227.31C172.626 227.956 173.107 228.817 173.297 229.894H170.789C170.688 229.387 170.46 228.982 170.105 228.678C169.751 228.374 169.288 228.222 168.718 228.222C168.262 228.222 167.908 228.33 167.654 228.545C167.401 228.76 167.274 229.052 167.274 229.419C167.274 229.71 167.376 229.945 167.578 230.122C167.781 230.299 168.034 230.439 168.338 230.54C168.642 230.641 169.079 230.762 169.649 230.901C170.447 231.078 171.093 231.268 171.587 231.471C172.094 231.661 172.525 231.971 172.879 232.402C173.247 232.82 173.43 233.39 173.43 234.112C173.43 235.011 173.076 235.74 172.366 236.297C171.67 236.854 170.726 237.133 169.535 237.133C168.167 237.133 167.072 236.829 166.248 236.221C165.425 235.6 164.925 234.72 164.747 233.58H167.312C167.376 234.099 167.604 234.511 167.996 234.815C168.389 235.106 168.902 235.252 169.535 235.252C169.991 235.252 170.34 235.144 170.58 234.929C170.821 234.701 170.941 234.41 170.941 234.055C170.941 233.751 170.834 233.504 170.618 233.314C170.416 233.124 170.156 232.978 169.839 232.877C169.535 232.776 169.098 232.655 168.528 232.516C167.743 232.339 167.103 232.161 166.609 231.984C166.128 231.794 165.71 231.496 165.355 231.091C165.013 230.686 164.842 230.128 164.842 229.419C164.842 228.507 165.191 227.766 165.887 227.196C166.584 226.626 167.547 226.341 168.775 226.341ZM184.769 224.65C183.984 224.599 183.433 224.713 183.116 224.992C182.8 225.271 182.641 225.758 182.641 226.455V226.474H184.769V228.735H182.641V237H179.962V228.735H178.613V226.474H179.962V226.227C179.962 224.973 180.317 224.01 181.026 223.339C181.748 222.655 182.812 222.313 184.218 222.313C184.459 222.313 184.643 222.319 184.769 222.332V224.65ZM191.237 226.341C192.263 226.341 193.181 226.556 193.992 226.987C194.815 227.418 195.461 228.045 195.93 228.868C196.398 229.679 196.633 230.635 196.633 231.737C196.633 232.839 196.398 233.795 195.93 234.606C195.461 235.417 194.815 236.044 193.992 236.487C193.181 236.918 192.263 237.133 191.237 237.133C190.211 237.133 189.286 236.918 188.463 236.487C187.652 236.044 187.012 235.417 186.544 234.606C186.075 233.795 185.841 232.839 185.841 231.737C185.841 230.635 186.075 229.679 186.544 228.868C187.012 228.045 187.652 227.418 188.463 226.987C189.286 226.556 190.211 226.341 191.237 226.341ZM191.237 228.659C190.489 228.659 189.856 228.925 189.337 229.457C188.817 229.976 188.558 230.736 188.558 231.737C188.558 232.738 188.817 233.504 189.337 234.036C189.856 234.555 190.489 234.815 191.237 234.815C191.984 234.815 192.617 234.555 193.137 234.036C193.656 233.504 193.916 232.738 193.916 231.737C193.916 230.736 193.656 229.976 193.137 229.457C192.617 228.925 191.984 228.659 191.237 228.659ZM208.596 226.474V237H205.917V234.872C205.638 235.581 205.176 236.139 204.53 236.544C203.897 236.937 203.162 237.133 202.326 237.133C201.11 237.133 200.141 236.734 199.419 235.936C198.697 235.138 198.336 234.023 198.336 232.592V226.474H200.996V232.288C200.996 233.124 201.211 233.776 201.642 234.245C202.073 234.701 202.655 234.929 203.39 234.929C204.163 234.929 204.777 234.682 205.233 234.188C205.689 233.694 205.917 232.985 205.917 232.06V226.474H208.596ZM217.302 226.322C218.518 226.322 219.487 226.721 220.209 227.519C220.931 228.317 221.292 229.438 221.292 230.882V237H218.632V231.186C218.632 230.35 218.417 229.704 217.986 229.248C217.555 228.779 216.966 228.545 216.219 228.545C215.459 228.545 214.851 228.792 214.395 229.286C213.939 229.78 213.711 230.489 213.711 231.414V237H211.032V226.474H213.711V228.583C213.99 227.874 214.446 227.323 215.079 226.93C215.725 226.525 216.466 226.322 217.302 226.322ZM227.772 226.341C228.659 226.341 229.412 226.55 230.033 226.968C230.666 227.386 231.122 227.95 231.401 228.659V222.94H234.061V237H231.401V234.796C231.122 235.505 230.666 236.075 230.033 236.506C229.412 236.924 228.659 237.133 227.772 237.133C226.885 237.133 226.087 236.918 225.378 236.487C224.669 236.056 224.111 235.436 223.706 234.625C223.313 233.802 223.117 232.839 223.117 231.737C223.117 230.635 223.313 229.679 223.706 228.868C224.111 228.045 224.669 227.418 225.378 226.987C226.087 226.556 226.885 226.341 227.772 226.341ZM228.608 228.678C227.772 228.678 227.101 228.95 226.594 229.495C226.087 230.04 225.834 230.787 225.834 231.737C225.834 232.687 226.087 233.434 226.594 233.979C227.101 234.511 227.772 234.777 228.608 234.777C229.419 234.777 230.084 234.505 230.603 233.96C231.135 233.403 231.401 232.662 231.401 231.737C231.401 230.8 231.135 230.059 230.603 229.514C230.084 228.957 229.419 228.678 228.608 228.678Z" fill="black"/>
<path d="M4.47906 272V260.866H0.717059V259.536H9.83706V260.866H6.07506V272H4.47906ZM11.0575 272V262.766H12.3495L12.4825 264.438H12.5395C12.8562 263.855 13.2362 263.393 13.6795 263.051C14.1355 262.709 14.6295 262.538 15.1615 262.538C15.5288 262.538 15.8582 262.601 16.1495 262.728L15.8455 264.096C15.6935 264.045 15.5542 264.007 15.4275 263.982C15.3008 263.957 15.1425 263.944 14.9525 263.944C14.5598 263.944 14.1482 264.102 13.7175 264.419C13.2995 264.736 12.9322 265.287 12.6155 266.072V272H11.0575ZM18.2788 275.971C18.0635 275.971 17.8672 275.952 17.6898 275.914C17.5125 275.889 17.3478 275.844 17.1958 275.781L17.4998 274.546C17.6012 274.571 17.7152 274.597 17.8418 274.622C17.9685 274.66 18.0888 274.679 18.2028 274.679C18.7348 274.679 19.1655 274.489 19.4948 274.109C19.8368 273.742 20.1028 273.273 20.2928 272.703L20.5018 272.019L16.7968 262.766H18.4118L20.2928 267.877C20.4322 268.282 20.5778 268.713 20.7298 269.169C20.8945 269.612 21.0465 270.049 21.1858 270.48H21.2618C21.4012 270.062 21.5342 269.625 21.6608 269.169C21.7875 268.713 21.9142 268.282 22.0408 267.877L23.6938 262.766H25.2138L21.7368 272.76C21.5722 273.216 21.3885 273.64 21.1858 274.033C20.9832 274.426 20.7425 274.761 20.4638 275.04C20.1852 275.331 19.8685 275.559 19.5138 275.724C19.1592 275.889 18.7475 275.971 18.2788 275.971ZM32.9277 272.228C32.155 272.228 31.509 272 30.9897 271.544C30.483 271.088 30.2297 270.442 30.2297 269.606C30.2297 268.593 30.6794 267.82 31.5787 267.288C32.478 266.743 33.9157 266.363 35.8917 266.148C35.8917 265.857 35.86 265.572 35.7967 265.293C35.746 265.014 35.651 264.767 35.5117 264.552C35.3724 264.337 35.176 264.166 34.9227 264.039C34.682 263.9 34.3717 263.83 33.9917 263.83C33.4597 263.83 32.9594 263.931 32.4907 264.134C32.022 264.337 31.604 264.565 31.2367 264.818L30.6287 263.735C31.0594 263.456 31.585 263.19 32.2057 262.937C32.8264 262.671 33.5104 262.538 34.2577 262.538C35.385 262.538 36.202 262.886 36.7087 263.583C37.2154 264.267 37.4687 265.185 37.4687 266.338V272H36.1767L36.0437 270.898H35.9867C35.5434 271.265 35.0684 271.582 34.5617 271.848C34.055 272.101 33.5104 272.228 32.9277 272.228ZM33.3837 270.974C33.827 270.974 34.245 270.873 34.6377 270.67C35.0304 270.455 35.4484 270.144 35.8917 269.739V267.174C35.119 267.275 34.4667 267.396 33.9347 267.535C33.4154 267.674 32.991 267.839 32.6617 268.029C32.345 268.219 32.1107 268.441 31.9587 268.694C31.8194 268.935 31.7497 269.201 31.7497 269.492C31.7497 270.024 31.908 270.404 32.2247 270.632C32.5414 270.86 32.9277 270.974 33.3837 270.974ZM40.3739 272V262.766H41.6659L41.7989 264.096H41.8559C42.2993 263.653 42.7616 263.285 43.2429 262.994C43.7369 262.69 44.3069 262.538 44.9529 262.538C45.9283 262.538 46.6376 262.842 47.0809 263.45C47.5369 264.058 47.7649 264.957 47.7649 266.148V272H46.2069V266.357C46.2069 265.483 46.0676 264.856 45.7889 264.476C45.5103 264.083 45.0669 263.887 44.4589 263.887C43.9776 263.887 43.5533 264.007 43.1859 264.248C42.8186 264.489 42.4006 264.843 41.9319 265.312V272H40.3739ZM54.3555 272.228C53.7855 272.228 53.2409 272.12 52.7215 271.905C52.2149 271.69 51.7652 271.379 51.3725 270.974C50.9799 270.556 50.6632 270.049 50.4225 269.454C50.1945 268.846 50.0805 268.162 50.0805 267.402C50.0805 266.629 50.1945 265.945 50.4225 265.35C50.6632 264.742 50.9799 264.229 51.3725 263.811C51.7652 263.393 52.2149 263.076 52.7215 262.861C53.2409 262.646 53.7855 262.538 54.3555 262.538C54.9255 262.538 55.4639 262.646 55.9705 262.861C56.4899 263.076 56.9459 263.393 57.3385 263.811C57.7312 264.229 58.0415 264.742 58.2695 265.35C58.5102 265.945 58.6305 266.629 58.6305 267.402C58.6305 268.162 58.5102 268.846 58.2695 269.454C58.0415 270.049 57.7312 270.556 57.3385 270.974C56.9459 271.379 56.4899 271.69 55.9705 271.905C55.4639 272.12 54.9255 272.228 54.3555 272.228ZM54.3555 270.936C54.7482 270.936 55.1092 270.854 55.4385 270.689C55.7679 270.512 56.0465 270.271 56.2745 269.967C56.5152 269.65 56.6989 269.277 56.8255 268.846C56.9522 268.415 57.0155 267.934 57.0155 267.402C57.0155 266.87 56.9522 266.389 56.8255 265.958C56.6989 265.515 56.5152 265.135 56.2745 264.818C56.0465 264.501 55.7679 264.261 55.4385 264.096C55.1092 263.919 54.7482 263.83 54.3555 263.83C53.9629 263.83 53.6019 263.919 53.2725 264.096C52.9432 264.261 52.6582 264.501 52.4175 264.818C52.1895 265.135 52.0122 265.515 51.8855 265.958C51.7589 266.389 51.6955 266.87 51.6955 267.402C51.6955 267.934 51.7589 268.415 51.8855 268.846C52.0122 269.277 52.1895 269.65 52.4175 269.967C52.6582 270.271 52.9432 270.512 53.2725 270.689C53.6019 270.854 53.9629 270.936 54.3555 270.936ZM63.654 272.228C63.16 272.228 62.742 272.152 62.4 272C62.0706 271.848 61.7983 271.639 61.583 271.373C61.3803 271.107 61.2346 270.784 61.146 270.404C61.0573 270.024 61.013 269.606 61.013 269.15V264.039H59.645V262.861L61.089 262.766L61.279 260.182H62.59V262.766H65.079V264.039H62.59V269.169C62.59 269.739 62.6913 270.182 62.894 270.499C63.1093 270.803 63.483 270.955 64.015 270.955C64.1796 270.955 64.357 270.93 64.547 270.879C64.737 270.828 64.908 270.771 65.06 270.708L65.364 271.886C65.1106 271.975 64.832 272.051 64.528 272.114C64.2366 272.19 63.9453 272.228 63.654 272.228ZM67.1669 272V258.472H68.7249V262.158L68.6679 264.058C69.1112 263.64 69.5736 263.285 70.0549 262.994C70.5362 262.69 71.0999 262.538 71.7459 262.538C72.7212 262.538 73.4306 262.842 73.8739 263.45C74.3299 264.058 74.5579 264.957 74.5579 266.148V272H72.9999V266.357C72.9999 265.483 72.8606 264.856 72.5819 264.476C72.3032 264.083 71.8599 263.887 71.2519 263.887C70.7706 263.887 70.3462 264.007 69.9789 264.248C69.6116 264.489 69.1936 264.843 68.7249 265.312V272H67.1669ZM81.2448 272.228C80.6242 272.228 80.0415 272.12 79.4968 271.905C78.9648 271.677 78.4962 271.36 78.0908 270.955C77.6982 270.537 77.3878 270.03 77.1598 269.435C76.9318 268.84 76.8178 268.162 76.8178 267.402C76.8178 266.642 76.9318 265.964 77.1598 265.369C77.4005 264.761 77.7108 264.248 78.0908 263.83C78.4835 263.412 78.9268 263.095 79.4208 262.88C79.9148 262.652 80.4278 262.538 80.9598 262.538C81.5425 262.538 82.0618 262.639 82.5178 262.842C82.9865 263.045 83.3728 263.336 83.6768 263.716C83.9935 264.096 84.2342 264.552 84.3988 265.084C84.5635 265.616 84.6458 266.211 84.6458 266.87C84.6458 267.035 84.6395 267.199 84.6268 267.364C84.6268 267.516 84.6142 267.649 84.5888 267.763H78.3568C78.4202 268.751 78.7242 269.536 79.2688 270.119C79.8262 270.689 80.5482 270.974 81.4348 270.974C81.8782 270.974 82.2835 270.911 82.6508 270.784C83.0308 270.645 83.3918 270.467 83.7338 270.252L84.2848 271.278C83.8795 271.531 83.4298 271.753 82.9358 271.943C82.4418 272.133 81.8782 272.228 81.2448 272.228ZM78.3378 266.642H83.2778C83.2778 265.705 83.0752 264.995 82.6698 264.514C82.2772 264.02 81.7198 263.773 80.9978 263.773C80.6685 263.773 80.3518 263.836 80.0478 263.963C79.7565 264.09 79.4905 264.28 79.2498 264.533C79.0092 264.774 78.8065 265.071 78.6418 265.426C78.4898 265.781 78.3885 266.186 78.3378 266.642ZM86.9276 272V262.766H88.2196L88.3526 264.438H88.4096C88.7263 263.855 89.1063 263.393 89.5496 263.051C90.0056 262.709 90.4996 262.538 91.0316 262.538C91.399 262.538 91.7283 262.601 92.0196 262.728L91.7156 264.096C91.5636 264.045 91.4243 264.007 91.2976 263.982C91.171 263.957 91.0126 263.944 90.8226 263.944C90.43 263.944 90.0183 264.102 89.5876 264.419C89.1696 264.736 88.8023 265.287 88.4856 266.072V272H86.9276ZM97.3183 272V258.472H98.8573V267.63H98.9143L102.847 262.766H104.576L101.479 266.471L104.994 272H103.284L100.586 267.554L98.8573 269.568V272H97.3183ZM110.134 272.228C109.514 272.228 108.931 272.12 108.386 271.905C107.854 271.677 107.386 271.36 106.98 270.955C106.588 270.537 106.277 270.03 106.049 269.435C105.821 268.84 105.707 268.162 105.707 267.402C105.707 266.642 105.821 265.964 106.049 265.369C106.29 264.761 106.6 264.248 106.98 263.83C107.373 263.412 107.816 263.095 108.31 262.88C108.804 262.652 109.317 262.538 109.849 262.538C110.432 262.538 110.951 262.639 111.407 262.842C111.876 263.045 112.262 263.336 112.566 263.716C112.883 264.096 113.124 264.552 113.288 265.084C113.453 265.616 113.535 266.211 113.535 266.87C113.535 267.035 113.529 267.199 113.516 267.364C113.516 267.516 113.504 267.649 113.478 267.763H107.246C107.31 268.751 107.614 269.536 108.158 270.119C108.716 270.689 109.438 270.974 110.324 270.974C110.768 270.974 111.173 270.911 111.54 270.784C111.92 270.645 112.281 270.467 112.623 270.252L113.174 271.278C112.769 271.531 112.319 271.753 111.825 271.943C111.331 272.133 110.768 272.228 110.134 272.228ZM107.227 266.642H112.167C112.167 265.705 111.965 264.995 111.559 264.514C111.167 264.02 110.609 263.773 109.887 263.773C109.558 263.773 109.241 263.836 108.937 263.963C108.646 264.09 108.38 264.28 108.139 264.533C107.899 264.774 107.696 265.071 107.531 265.426C107.379 265.781 107.278 266.186 107.227 266.642ZM116.062 275.971C115.847 275.971 115.65 275.952 115.473 275.914C115.296 275.889 115.131 275.844 114.979 275.781L115.283 274.546C115.384 274.571 115.498 274.597 115.625 274.622C115.752 274.66 115.872 274.679 115.986 274.679C116.518 274.679 116.949 274.489 117.278 274.109C117.62 273.742 117.886 273.273 118.076 272.703L118.285 272.019L114.58 262.766H116.195L118.076 267.877C118.215 268.282 118.361 268.713 118.513 269.169C118.678 269.612 118.83 270.049 118.969 270.48H119.045C119.184 270.062 119.317 269.625 119.444 269.169C119.571 268.713 119.697 268.282 119.824 267.877L121.477 262.766H122.997L119.52 272.76C119.355 273.216 119.172 273.64 118.969 274.033C118.766 274.426 118.526 274.761 118.247 275.04C117.968 275.331 117.652 275.559 117.297 275.724C116.942 275.889 116.531 275.971 116.062 275.971ZM126.242 272L123.677 262.766H125.273L126.641 268.105C126.743 268.548 126.838 268.979 126.926 269.397C127.015 269.815 127.104 270.239 127.192 270.67H127.268C127.37 270.239 127.471 269.815 127.572 269.397C127.674 268.966 127.781 268.536 127.895 268.105L129.32 262.766H130.84L132.284 268.105C132.398 268.548 132.506 268.979 132.607 269.397C132.721 269.815 132.829 270.239 132.93 270.67H133.006C133.108 270.239 133.203 269.815 133.291 269.397C133.38 268.979 133.475 268.548 133.576 268.105L134.925 262.766H136.407L133.937 272H132.037L130.707 267.041C130.593 266.598 130.486 266.161 130.384 265.73C130.296 265.299 130.194 264.85 130.08 264.381H130.004C129.903 264.85 129.802 265.306 129.7 265.749C129.599 266.18 129.485 266.617 129.358 267.06L128.066 272H126.242ZM141.934 272.228C141.364 272.228 140.819 272.12 140.3 271.905C139.793 271.69 139.343 271.379 138.951 270.974C138.558 270.556 138.241 270.049 138.001 269.454C137.773 268.846 137.659 268.162 137.659 267.402C137.659 266.629 137.773 265.945 138.001 265.35C138.241 264.742 138.558 264.229 138.951 263.811C139.343 263.393 139.793 263.076 140.3 262.861C140.819 262.646 141.364 262.538 141.934 262.538C142.504 262.538 143.042 262.646 143.549 262.861C144.068 263.076 144.524 263.393 144.917 263.811C145.309 264.229 145.62 264.742 145.848 265.35C146.088 265.945 146.209 266.629 146.209 267.402C146.209 268.162 146.088 268.846 145.848 269.454C145.62 270.049 145.309 270.556 144.917 270.974C144.524 271.379 144.068 271.69 143.549 271.905C143.042 272.12 142.504 272.228 141.934 272.228ZM141.934 270.936C142.326 270.936 142.687 270.854 143.017 270.689C143.346 270.512 143.625 270.271 143.853 269.967C144.093 269.65 144.277 269.277 144.404 268.846C144.53 268.415 144.594 267.934 144.594 267.402C144.594 266.87 144.53 266.389 144.404 265.958C144.277 265.515 144.093 265.135 143.853 264.818C143.625 264.501 143.346 264.261 143.017 264.096C142.687 263.919 142.326 263.83 141.934 263.83C141.541 263.83 141.18 263.919 140.851 264.096C140.521 264.261 140.236 264.501 139.996 264.818C139.768 265.135 139.59 265.515 139.464 265.958C139.337 266.389 139.274 266.87 139.274 267.402C139.274 267.934 139.337 268.415 139.464 268.846C139.59 269.277 139.768 269.65 139.996 269.967C140.236 270.271 140.521 270.512 140.851 270.689C141.18 270.854 141.541 270.936 141.934 270.936ZM148.641 272V262.766H149.933L150.066 264.438H150.123C150.439 263.855 150.819 263.393 151.263 263.051C151.719 262.709 152.213 262.538 152.745 262.538C153.112 262.538 153.441 262.601 153.733 262.728L153.429 264.096C153.277 264.045 153.137 264.007 153.011 263.982C152.884 263.957 152.726 263.944 152.536 263.944C152.143 263.944 151.731 264.102 151.301 264.419C150.883 264.736 150.515 265.287 150.199 266.072V272H148.641ZM158.196 272.228C157.031 272.228 156.1 271.81 155.403 270.974C154.719 270.138 154.377 268.947 154.377 267.402C154.377 266.655 154.485 265.983 154.7 265.388C154.928 264.78 155.226 264.267 155.593 263.849C155.96 263.431 156.385 263.108 156.866 262.88C157.347 262.652 157.854 262.538 158.386 262.538C158.918 262.538 159.38 262.633 159.773 262.823C160.166 263.013 160.565 263.273 160.97 263.602L160.894 262.025V258.472H162.471V272H161.179L161.046 270.917H160.989C160.622 271.272 160.197 271.582 159.716 271.848C159.247 272.101 158.741 272.228 158.196 272.228ZM158.538 270.917C158.969 270.917 159.374 270.816 159.754 270.613C160.134 270.398 160.514 270.075 160.894 269.644V264.818C160.501 264.463 160.121 264.216 159.754 264.077C159.399 263.925 159.032 263.849 158.652 263.849C158.285 263.849 157.936 263.938 157.607 264.115C157.29 264.28 157.012 264.52 156.771 264.837C156.53 265.141 156.34 265.508 156.201 265.939C156.062 266.37 155.992 266.851 155.992 267.383C155.992 268.498 156.214 269.365 156.657 269.986C157.1 270.607 157.727 270.917 158.538 270.917ZM172.976 272.228C172.406 272.228 171.861 272.12 171.342 271.905C170.835 271.69 170.385 271.379 169.993 270.974C169.6 270.556 169.283 270.049 169.043 269.454C168.815 268.846 168.701 268.162 168.701 267.402C168.701 266.629 168.815 265.945 169.043 265.35C169.283 264.742 169.6 264.229 169.993 263.811C170.385 263.393 170.835 263.076 171.342 262.861C171.861 262.646 172.406 262.538 172.976 262.538C173.546 262.538 174.084 262.646 174.591 262.861C175.11 263.076 175.566 263.393 175.959 263.811C176.351 264.229 176.662 264.742 176.89 265.35C177.13 265.945 177.251 266.629 177.251 267.402C177.251 268.162 177.13 268.846 176.89 269.454C176.662 270.049 176.351 270.556 175.959 270.974C175.566 271.379 175.11 271.69 174.591 271.905C174.084 272.12 173.546 272.228 172.976 272.228ZM172.976 270.936C173.368 270.936 173.729 270.854 174.059 270.689C174.388 270.512 174.667 270.271 174.895 269.967C175.135 269.65 175.319 269.277 175.446 268.846C175.572 268.415 175.636 267.934 175.636 267.402C175.636 266.87 175.572 266.389 175.446 265.958C175.319 265.515 175.135 265.135 174.895 264.818C174.667 264.501 174.388 264.261 174.059 264.096C173.729 263.919 173.368 263.83 172.976 263.83C172.583 263.83 172.222 263.919 171.893 264.096C171.563 264.261 171.278 264.501 171.038 264.818C170.81 265.135 170.632 265.515 170.506 265.958C170.379 266.389 170.316 266.87 170.316 267.402C170.316 267.934 170.379 268.415 170.506 268.846C170.632 269.277 170.81 269.65 171.038 269.967C171.278 270.271 171.563 270.512 171.893 270.689C172.222 270.854 172.583 270.936 172.976 270.936ZM179.683 272V262.766H180.975L181.108 264.438H181.165C181.481 263.855 181.861 263.393 182.305 263.051C182.761 262.709 183.255 262.538 183.787 262.538C184.154 262.538 184.483 262.601 184.775 262.728L184.471 264.096C184.319 264.045 184.179 264.007 184.053 263.982C183.926 263.957 183.768 263.944 183.578 263.944C183.185 263.944 182.773 264.102 182.343 264.419C181.925 264.736 181.557 265.287 181.241 266.072V272H179.683ZM193.816 272.228C193.195 272.228 192.613 272.12 192.068 271.905C191.536 271.677 191.067 271.36 190.662 270.955C190.269 270.537 189.959 270.03 189.731 269.435C189.503 268.84 189.389 268.162 189.389 267.402C189.389 266.642 189.503 265.964 189.731 265.369C189.972 264.761 190.282 264.248 190.662 263.83C191.055 263.412 191.498 263.095 191.992 262.88C192.486 262.652 192.999 262.538 193.531 262.538C194.114 262.538 194.633 262.639 195.089 262.842C195.558 263.045 195.944 263.336 196.248 263.716C196.565 264.096 196.805 264.552 196.97 265.084C197.135 265.616 197.217 266.211 197.217 266.87C197.217 267.035 197.211 267.199 197.198 267.364C197.198 267.516 197.185 267.649 197.16 267.763H190.928C190.991 268.751 191.295 269.536 191.84 270.119C192.397 270.689 193.119 270.974 194.006 270.974C194.449 270.974 194.855 270.911 195.222 270.784C195.602 270.645 195.963 270.467 196.305 270.252L196.856 271.278C196.451 271.531 196.001 271.753 195.507 271.943C195.013 272.133 194.449 272.228 193.816 272.228ZM190.909 266.642H195.849C195.849 265.705 195.646 264.995 195.241 264.514C194.848 264.02 194.291 263.773 193.569 263.773C193.24 263.773 192.923 263.836 192.619 263.963C192.328 264.09 192.062 264.28 191.821 264.533C191.58 264.774 191.378 265.071 191.213 265.426C191.061 265.781 190.96 266.186 190.909 266.642ZM202.653 272.228C201.488 272.228 200.557 271.81 199.86 270.974C199.176 270.138 198.834 268.947 198.834 267.402C198.834 266.655 198.942 265.983 199.157 265.388C199.385 264.78 199.683 264.267 200.05 263.849C200.417 263.431 200.842 263.108 201.323 262.88C201.804 262.652 202.311 262.538 202.843 262.538C203.375 262.538 203.837 262.633 204.23 262.823C204.623 263.013 205.022 263.273 205.427 263.602L205.351 262.025V258.472H206.928V272H205.636L205.503 270.917H205.446C205.079 271.272 204.654 271.582 204.173 271.848C203.704 272.101 203.198 272.228 202.653 272.228ZM202.995 270.917C203.426 270.917 203.831 270.816 204.211 270.613C204.591 270.398 204.971 270.075 205.351 269.644V264.818C204.958 264.463 204.578 264.216 204.211 264.077C203.856 263.925 203.489 263.849 203.109 263.849C202.742 263.849 202.393 263.938 202.064 264.115C201.747 264.28 201.469 264.52 201.228 264.837C200.987 265.141 200.797 265.508 200.658 265.939C200.519 266.37 200.449 266.851 200.449 267.383C200.449 268.498 200.671 269.365 201.114 269.986C201.557 270.607 202.184 270.917 202.995 270.917ZM210.038 272V262.766H211.596V272H210.038ZM210.836 260.866C210.532 260.866 210.272 260.771 210.057 260.581C209.854 260.391 209.753 260.15 209.753 259.859C209.753 259.555 209.854 259.314 210.057 259.137C210.272 258.947 210.532 258.852 210.836 258.852C211.14 258.852 211.393 258.947 211.596 259.137C211.811 259.314 211.919 259.555 211.919 259.859C211.919 260.15 211.811 260.391 211.596 260.581C211.393 260.771 211.14 260.866 210.836 260.866ZM217.621 272.228C217.127 272.228 216.709 272.152 216.367 272C216.037 271.848 215.765 271.639 215.55 271.373C215.347 271.107 215.201 270.784 215.113 270.404C215.024 270.024 214.98 269.606 214.98 269.15V264.039H213.612V262.861L215.056 262.766L215.246 260.182H216.557V262.766H219.046V264.039H216.557V269.169C216.557 269.739 216.658 270.182 216.861 270.499C217.076 270.803 217.45 270.955 217.982 270.955C218.146 270.955 218.324 270.93 218.514 270.879C218.704 270.828 218.875 270.771 219.027 270.708L219.331 271.886C219.077 271.975 218.799 272.051 218.495 272.114C218.203 272.19 217.912 272.228 217.621 272.228ZM225.089 275.971C224.874 275.971 224.678 275.952 224.5 275.914C224.323 275.889 224.158 275.844 224.006 275.781L224.31 274.546C224.412 274.571 224.526 274.597 224.652 274.622C224.779 274.66 224.899 274.679 225.013 274.679C225.545 274.679 225.976 274.489 226.305 274.109C226.647 273.742 226.913 273.273 227.103 272.703L227.312 272.019L223.607 262.766H225.222L227.103 267.877C227.243 268.282 227.388 268.713 227.54 269.169C227.705 269.612 227.857 270.049 227.996 270.48H228.072C228.212 270.062 228.345 269.625 228.471 269.169C228.598 268.713 228.725 268.282 228.851 267.877L230.504 262.766H232.024L228.547 272.76C228.383 273.216 228.199 273.64 227.996 274.033C227.794 274.426 227.553 274.761 227.274 275.04C226.996 275.331 226.679 275.559 226.324 275.724C225.97 275.889 225.558 275.971 225.089 275.971ZM237.323 272.228C236.753 272.228 236.209 272.12 235.689 271.905C235.183 271.69 234.733 271.379 234.34 270.974C233.948 270.556 233.631 270.049 233.39 269.454C233.162 268.846 233.048 268.162 233.048 267.402C233.048 266.629 233.162 265.945 233.39 265.35C233.631 264.742 233.948 264.229 234.34 263.811C234.733 263.393 235.183 263.076 235.689 262.861C236.209 262.646 236.753 262.538 237.323 262.538C237.893 262.538 238.432 262.646 238.938 262.861C239.458 263.076 239.914 263.393 240.306 263.811C240.699 264.229 241.009 264.742 241.237 265.35C241.478 265.945 241.598 266.629 241.598 267.402C241.598 268.162 241.478 268.846 241.237 269.454C241.009 270.049 240.699 270.556 240.306 270.974C239.914 271.379 239.458 271.69 238.938 271.905C238.432 272.12 237.893 272.228 237.323 272.228ZM237.323 270.936C237.716 270.936 238.077 270.854 238.406 270.689C238.736 270.512 239.014 270.271 239.242 269.967C239.483 269.65 239.667 269.277 239.793 268.846C239.92 268.415 239.983 267.934 239.983 267.402C239.983 266.87 239.92 266.389 239.793 265.958C239.667 265.515 239.483 265.135 239.242 264.818C239.014 264.501 238.736 264.261 238.406 264.096C238.077 263.919 237.716 263.83 237.323 263.83C236.931 263.83 236.57 263.919 236.24 264.096C235.911 264.261 235.626 264.501 235.385 264.818C235.157 265.135 234.98 265.515 234.853 265.958C234.727 266.389 234.663 266.87 234.663 267.402C234.663 267.934 234.727 268.415 234.853 268.846C234.98 269.277 235.157 269.65 235.385 269.967C235.626 270.271 235.911 270.512 236.24 270.689C236.57 270.854 236.931 270.936 237.323 270.936ZM246.728 272.228C245.74 272.228 245.018 271.924 244.562 271.316C244.119 270.708 243.897 269.809 243.897 268.618V262.766H245.474V268.409C245.474 269.283 245.607 269.916 245.873 270.309C246.152 270.689 246.595 270.879 247.203 270.879C247.685 270.879 248.109 270.759 248.476 270.518C248.844 270.265 249.249 269.866 249.692 269.321V262.766H251.25V272H249.958L249.825 270.556H249.768C249.338 271.063 248.882 271.468 248.4 271.772C247.932 272.076 247.374 272.228 246.728 272.228ZM254.365 272V262.766H255.657L255.79 264.438H255.847C256.164 263.855 256.544 263.393 256.987 263.051C257.443 262.709 257.937 262.538 258.469 262.538C258.836 262.538 259.166 262.601 259.457 262.728L259.153 264.096C259.001 264.045 258.862 264.007 258.735 263.982C258.608 263.957 258.45 263.944 258.26 263.944C257.867 263.944 257.456 264.102 257.025 264.419C256.607 264.736 256.24 265.287 255.923 266.072V272H254.365ZM265.022 272V264.039H263.768V262.861L265.022 262.766V261.303C265.022 260.353 265.237 259.606 265.668 259.061C266.111 258.516 266.795 258.244 267.72 258.244C268.011 258.244 268.283 258.276 268.537 258.339C268.803 258.39 269.043 258.459 269.259 258.548L268.917 259.745C268.575 259.593 268.226 259.517 267.872 259.517C267.01 259.517 266.58 260.112 266.58 261.303V262.766H268.537V264.039H266.58V272H265.022ZM270.304 272V262.766H271.862V272H270.304ZM271.102 260.866C270.798 260.866 270.538 260.771 270.323 260.581C270.12 260.391 270.019 260.15 270.019 259.859C270.019 259.555 270.12 259.314 270.323 259.137C270.538 258.947 270.798 258.852 271.102 258.852C271.406 258.852 271.659 258.947 271.862 259.137C272.077 259.314 272.185 259.555 272.185 259.859C272.185 260.15 272.077 260.391 271.862 260.581C271.659 260.771 271.406 260.866 271.102 260.866ZM276.632 272.228C276.037 272.228 275.613 272.051 275.359 271.696C275.106 271.341 274.979 270.822 274.979 270.138V258.472H276.537V270.252C276.537 270.505 276.582 270.683 276.67 270.784C276.759 270.885 276.86 270.936 276.974 270.936C277.025 270.936 277.069 270.936 277.107 270.936C277.158 270.936 277.228 270.923 277.316 270.898L277.525 272.076C277.424 272.127 277.304 272.165 277.164 272.19C277.025 272.215 276.848 272.228 276.632 272.228ZM282.729 272.228C282.235 272.228 281.817 272.152 281.475 272C281.146 271.848 280.873 271.639 280.658 271.373C280.455 271.107 280.31 270.784 280.221 270.404C280.132 270.024 280.088 269.606 280.088 269.15V264.039H278.72V262.861L280.164 262.766L280.354 260.182H281.665V262.766H284.154V264.039H281.665V269.169C281.665 269.739 281.766 270.182 281.969 270.499C282.184 270.803 282.558 270.955 283.09 270.955C283.255 270.955 283.432 270.93 283.622 270.879C283.812 270.828 283.983 270.771 284.135 270.708L284.439 271.886C284.186 271.975 283.907 272.051 283.603 272.114C283.312 272.19 283.02 272.228 282.729 272.228ZM289.725 272.228C289.105 272.228 288.522 272.12 287.977 271.905C287.445 271.677 286.977 271.36 286.571 270.955C286.179 270.537 285.868 270.03 285.64 269.435C285.412 268.84 285.298 268.162 285.298 267.402C285.298 266.642 285.412 265.964 285.64 265.369C285.881 264.761 286.191 264.248 286.571 263.83C286.964 263.412 287.407 263.095 287.901 262.88C288.395 262.652 288.908 262.538 289.44 262.538C290.023 262.538 290.542 262.639 290.998 262.842C291.467 263.045 291.853 263.336 292.157 263.716C292.474 264.096 292.715 264.552 292.879 265.084C293.044 265.616 293.126 266.211 293.126 266.87C293.126 267.035 293.12 267.199 293.107 267.364C293.107 267.516 293.095 267.649 293.069 267.763H286.837C286.901 268.751 287.205 269.536 287.749 270.119C288.307 270.689 289.029 270.974 289.915 270.974C290.359 270.974 290.764 270.911 291.131 270.784C291.511 270.645 291.872 270.467 292.214 270.252L292.765 271.278C292.36 271.531 291.91 271.753 291.416 271.943C290.922 272.133 290.359 272.228 289.725 272.228ZM286.818 266.642H291.758C291.758 265.705 291.556 264.995 291.15 264.514C290.758 264.02 290.2 263.773 289.478 263.773C289.149 263.773 288.832 263.836 288.528 263.963C288.237 264.09 287.971 264.28 287.73 264.533C287.49 264.774 287.287 265.071 287.122 265.426C286.97 265.781 286.869 266.186 286.818 266.642ZM295.408 272V262.766H296.7L296.833 264.438H296.89C297.207 263.855 297.587 263.393 298.03 263.051C298.486 262.709 298.98 262.538 299.512 262.538C299.879 262.538 300.209 262.601 300.5 262.728L300.196 264.096C300.044 264.045 299.905 264.007 299.778 263.982C299.651 263.957 299.493 263.944 299.303 263.944C298.91 263.944 298.499 264.102 298.068 264.419C297.65 264.736 297.283 265.287 296.966 266.072V272H295.408ZM304.334 272.228C303.675 272.228 303.048 272.108 302.453 271.867C301.857 271.626 301.338 271.322 300.895 270.955L301.674 269.91C302.079 270.239 302.491 270.505 302.909 270.708C303.339 270.911 303.833 271.012 304.391 271.012C304.999 271.012 305.455 270.873 305.759 270.594C306.063 270.315 306.215 269.973 306.215 269.568C306.215 269.327 306.151 269.118 306.025 268.941C305.898 268.764 305.733 268.612 305.531 268.485C305.341 268.346 305.119 268.225 304.866 268.124C304.612 268.023 304.359 267.921 304.106 267.82C303.776 267.706 303.447 267.579 303.118 267.44C302.788 267.288 302.491 267.111 302.225 266.908C301.971 266.693 301.762 266.446 301.598 266.167C301.433 265.888 301.351 265.553 301.351 265.16C301.351 264.793 301.42 264.451 301.56 264.134C301.712 263.805 301.921 263.526 302.187 263.298C302.465 263.057 302.801 262.874 303.194 262.747C303.586 262.608 304.03 262.538 304.524 262.538C305.106 262.538 305.638 262.639 306.12 262.842C306.614 263.045 307.038 263.292 307.393 263.583L306.652 264.571C306.335 264.33 306.006 264.134 305.664 263.982C305.322 263.83 304.948 263.754 304.543 263.754C303.96 263.754 303.529 263.887 303.251 264.153C302.985 264.419 302.852 264.729 302.852 265.084C302.852 265.299 302.909 265.489 303.023 265.654C303.137 265.806 303.289 265.945 303.479 266.072C303.669 266.186 303.884 266.294 304.125 266.395C304.378 266.484 304.638 266.579 304.904 266.68C305.233 266.807 305.562 266.94 305.892 267.079C306.234 267.218 306.538 267.396 306.804 267.611C307.07 267.814 307.285 268.067 307.45 268.371C307.627 268.675 307.716 269.042 307.716 269.473C307.716 269.853 307.64 270.208 307.488 270.537C307.348 270.866 307.133 271.158 306.842 271.411C306.563 271.664 306.208 271.861 305.778 272C305.36 272.152 304.878 272.228 304.334 272.228ZM310.527 268.238L310.318 261.056L310.28 259.27H311.857L311.819 261.056L311.61 268.238H310.527ZM311.078 272.228C310.761 272.228 310.489 272.12 310.261 271.905C310.045 271.677 309.938 271.392 309.938 271.05C309.938 270.683 310.045 270.391 310.261 270.176C310.489 269.948 310.761 269.834 311.078 269.834C311.382 269.834 311.641 269.948 311.857 270.176C312.085 270.391 312.199 270.683 312.199 271.05C312.199 271.392 312.085 271.677 311.857 271.905C311.641 272.12 311.382 272.228 311.078 272.228Z" fill="black"/>
<defs>
<linearGradient id="paint0_linear" x1="184.083" y1="204.861" x2="145.889" y2="52.083" gradientUnits="userSpaceOnUse">
<stop stop-color="#D9E8FF"/>
<stop offset="1" stop-color="#F7F7FD"/>
</linearGradient>
<linearGradient id="paint1_linear" x1="189.104" y1="121.369" x2="193.306" y2="127.763" gradientUnits="userSpaceOnUse">
<stop stop-color="#763BF1"/>
<stop offset="1" stop-color="#5EDFFF"/>
</linearGradient>
<linearGradient id="paint2_linear" x1="174.241" y1="104.542" x2="153.985" y2="141.642" gradientUnits="userSpaceOnUse">
<stop stop-color="#763BF1"/>
<stop offset="1" stop-color="#5EDFFF"/>
</linearGradient>
<linearGradient id="paint3_linear" x1="193.13" y1="37.1807" x2="80.63" y2="150.462" gradientUnits="userSpaceOnUse">
<stop stop-color="#763BF1"/>
<stop offset="1" stop-color="#5EDFFF"/>
</linearGradient>
<linearGradient id="paint4_linear" x1="181.324" y1="48.9863" x2="95.3869" y2="135.521" gradientUnits="userSpaceOnUse">
<stop stop-color="#763BF1"/>
<stop offset="1" stop-color="#5EDFFF"/>
</linearGradient>
</defs>
</svg>
